<svg xmlns="http://www.w3.org/2000/svg" viewBox="0 0 40 36"><defs><style>.cls-1{fill:none;}.cls-2{fill:#4285f4;}.cls-3{fill:#fbbc05;}.cls-4{fill:#3ea968;}.cls-5{fill:#ea4335;}</style></defs><g id="Layer_2" data-name="Layer 2"><g id="Layer_1-2" data-name="Layer 1"><path class="cls-1" d="M37,10.35a3,3,0,0,0-3-3H31.92L37,13.85Z"/><path class="cls-1" d="M31.3,9.2l-.66-1.85H6a3,3,0,0,0-3,3V23L13.92,33H34a3,3,0,0,0,3-3V13.85l-5.08-6.5H30.64ZM26.05,26.25A8.26,8.26,0,0,1,20,28.7a8.2,8.2,0,0,1-6-2.45,8.32,8.32,0,0,1-2.42-6.08A8.27,8.27,0,0,1,20,11.7a8.32,8.32,0,0,1,6.08,2.42,8.2,8.2,0,0,1,2.45,6.05A8.26,8.26,0,0,1,26.05,26.25Z"/><path class="cls-1" d="M3,30a3,3,0,0,0,3,3h7.92L3,23Z"/><path class="cls-2" d="M20,11.7a8.27,8.27,0,0,0-8.47,8.47,8.32,8.32,0,0,0,2.42,6.08,8.2,8.2,0,0,0,6,2.45,8.37,8.37,0,0,0,8.53-8.53,8.2,8.2,0,0,0-2.45-6.05A8.32,8.32,0,0,0,20,11.7Zm4,12.42a5.34,5.34,0,0,1-4,1.58,5.27,5.27,0,0,1-3.92-1.58,5.39,5.39,0,0,1-1.55-3.95A5.3,5.3,0,0,1,20,14.7a5.39,5.39,0,0,1,4,1.55,5.27,5.27,0,0,1,1.58,3.92A5.34,5.34,0,0,1,23.92,24.12Z"/><path class="cls-2" d="M20,14.7a5.3,5.3,0,0,0-5.47,5.47,5.39,5.39,0,0,0,1.55,3.95A5.27,5.27,0,0,0,20,25.7a5.4,5.4,0,0,0,5.53-5.53,5.27,5.27,0,0,0-1.58-3.92A5.39,5.39,0,0,0,20,14.7Z"/><path class="cls-3" d="M6,33a3,3,0,0,1-3-3V23L0,20.19V33a2.88,2.88,0,0,0,.9,2.1A2.88,2.88,0,0,0,3,36H17.18l-3.26-3Z"/><path class="cls-4" d="M39.08,5.28A2.87,2.87,0,0,0,37,4.35H29.65l-.16-.19.06.16,2.37,3H34a3,3,0,0,1,3,3v3.5l3,3.83V7.35A2.86,2.86,0,0,0,39.08,5.28Z"/><polygon class="cls-4" points="31.92 7.35 29.55 4.32 30.64 7.35 31.92 7.35"/><path class="cls-2" d="M3,10.35a3,3,0,0,1,3-3H30.64l-1.09-3L28.5,3l1.05,1.34-.06-.16L26,0H14L10.35,4.35H3a2.83,2.83,0,0,0-2.1.93A2.88,2.88,0,0,0,0,7.35V20.19L3,23Z"/><path class="cls-5" d="M37,30a3,3,0,0,1-3,3H13.92l3.26,3H37a2.92,2.92,0,0,0,2.08-.9A2.86,2.86,0,0,0,40,33V17.68l-3-3.83Z"/></g></g></svg>