<svg xmlns="http://www.w3.org/2000/svg" viewBox="0 0 28 38"><defs><style>.cls-1{fill:#4285f4;}.cls-2{fill:#fbbc05;}.cls-3{fill:#34a853;}.cls-4{fill:#ea4335;}</style></defs><g id="Layer_2" data-name="Layer 2"><g id="Layer_1-2" data-name="Layer 1"><path class="cls-1" d="M14,22.85a4.75,4.75,0,0,1-3.6-1.55A5.27,5.27,0,0,1,9,17.55V5a4.79,4.79,0,0,1,1.47-3.54A4.91,4.91,0,0,1,14,0a4.93,4.93,0,0,1,3.58,1.46A4.79,4.79,0,0,1,19.05,5V17.55A5.27,5.27,0,0,1,17.6,21.3,4.75,4.75,0,0,1,14,22.85Z"/><path class="cls-2" d="M3,17.55H0a13.06,13.06,0,0,0,2.61,8l2.24-1.92A10.29,10.29,0,0,1,3,17.55Z"/><path class="cls-3" d="M12.5,31.3V38h3V31.2C13.65,31.3,12.83,31.31,12.5,31.3Z"/><path class="cls-4" d="M25,17.55a10.23,10.23,0,0,1-3.22,7.65A10.84,10.84,0,0,1,14,28.3a10.8,10.8,0,0,1-7.78-3.1,12.51,12.51,0,0,1-1.36-1.58L2.61,25.54A13.93,13.93,0,0,0,12.5,31.2h3a13.67,13.67,0,0,0,8.9-4.45,13.12,13.12,0,0,0,3.6-9.2Z"/><path d="M12.5,31.3v-.1S12.05,31.28,12.5,31.3Z"/><path class="cls-3" d="M12.5,31.3c.33,0,1.15,0,3-.1h-3Z"/></g></g></svg>